<?xml version="1.0" encoding="iso-8859-1"?>
<!-- Uploaded to: SVG Repo, www.svgrepo.com, Generator: SVG Repo Mixer Tools -->
<svg height="800px" width="800px" version="1.1" id="Layer_1" xmlns="http://www.w3.org/2000/svg" xmlns:xlink="http://www.w3.org/1999/xlink" 
	 viewBox="0 0 512 512" xml:space="preserve">
<path style="fill:#E35336;" d="M324.412,220.69h-147.86c-4.875,0-8.828,3.953-8.828,8.828v52.966c0,4.875,3.953,8.828,8.828,8.828
	h81.668c-14.351,36.894-50.07,61.793-90.496,61.793c-53.543,0-97.103-43.561-97.103-97.103s43.561-97.103,97.103-97.103
	c25.41,0,49.443,9.756,67.668,27.471c3.401,3.305,8.806,3.334,12.242,0.062l38.377-36.55c3.543-3.375,3.611-9.187,0.145-12.643
	c-31.66-31.573-73.72-48.961-118.431-48.961C75.241,88.276,0,163.517,0,256s75.241,167.724,167.724,167.724
	S335.448,348.483,335.448,256c0-9.323-0.785-18.724-2.33-27.944C332.404,223.805,328.723,220.69,324.412,220.69z"/>
<path style="fill:#D93C1C;" d="M194.207,414.897c-92.483,0-167.724-75.241-167.724-167.724c0-69.062,41.96-128.5,101.721-154.182
	C54.73,110.806,0,177.127,0,256c0,92.483,75.241,167.724,167.724,167.724c23.422,0,45.735-4.833,66.003-13.543
	C221.048,413.256,207.817,414.897,194.207,414.897z"/>
<path style="fill:#E35336;" d="M503.172,220.69H476.69v-26.483c0-4.875-3.953-8.828-8.828-8.828h-52.966
	c-4.875,0-8.828,3.953-8.828,8.828v26.483h-26.483c-4.875,0-8.828,3.953-8.828,8.828v52.966c0,4.875,3.953,8.828,8.828,8.828h26.483
	v26.483c0,4.875,3.953,8.828,8.828,8.828h52.966c4.875,0,8.828-3.953,8.828-8.828V291.31h26.483c4.875,0,8.828-3.953,8.828-8.828
	v-52.966C512,224.642,508.047,220.69,503.172,220.69z"/>
<g>
	<path style="fill:#D93C1C;" d="M388.414,282.483v-52.966c0-4.875,3.953-8.828,8.828-8.828h-17.655
		c-4.875,0-8.828,3.953-8.828,8.828v52.966c0,4.875,3.953,8.828,8.828,8.828h17.655C392.366,291.31,388.414,287.358,388.414,282.483
		z"/>
	<path style="fill:#D93C1C;" d="M423.724,194.207c0-4.875,3.953-8.828,8.828-8.828h-17.655c-4.875,0-8.828,3.953-8.828,8.828v26.483
		h17.655V194.207z"/>
	<path style="fill:#D93C1C;" d="M423.724,317.793V291.31h-17.655v26.483c0,4.875,3.953,8.828,8.828,8.828h17.655
		C427.677,326.621,423.724,322.668,423.724,317.793z"/>
</g>
</svg>